<?xml version="1.0" encoding="UTF-8"?>
<svg width="18px" height="18px" viewBox="0 0 18 18" version="1.1" xmlns="http://www.w3.org/2000/svg" xmlns:xlink="http://www.w3.org/1999/xlink">
    <title>2A462FE5-CF91-4F5C-8A30-13B642CF0030@1x</title>
    <defs>
        <path d="M8.24268519,12.0302778 L8.24268519,17.3339815 L3.03435185,17.3339815 C2.56398148,17.3339815 2.1825,16.9562037 2.1825,16.4913889 L2.1825,16.4913889 L2.1825,12.0302778 L8.24268519,12.0302778 Z M15.8183333,12.0298148 L15.8183333,16.4918519 C15.8183333,16.9566667 15.4368519,17.3335185 14.9664815,17.3335185 L14.9664815,17.3335185 L9.75814815,17.3335185 L9.75814815,12.0298148 L15.8183333,12.0298148 Z M16.5,4.45462963 L14.7944444,4.45462963 C14.9601852,4.10925926 15.0611111,3.72685185 15.0611111,3.31759259 C15.0611111,1.85648148 13.8712963,0.666666667 12.4092593,0.666666667 C10.6675926,0.666666667 9.61203704,1.88888889 9,3.04537037 C8.38796296,1.88888889 7.33333333,0.666666667 5.59166667,0.666666667 C4.12962963,0.666666667 2.93888889,1.85648148 2.93888889,3.31759259 C2.93888889,3.72685185 3.04074074,4.10925926 3.20648148,4.45462963 L1.50092593,4.45462963 C1.04074074,4.45462963 0.666666667,4.99722222 0.666666667,5.66759259 L0.666666667,9.30277778 C0.666666667,9.97222222 1.04074074,10.5157407 1.50092593,10.5157407 L2.18240741,10.5157407 L8.24259259,10.5157407 L8.24259259,4.45462963 L9.75833333,4.45462963 L9.75833333,10.5157407 L15.8185185,10.5157407 L16.5,10.5157407 C16.9601852,10.5157407 17.3333333,9.97222222 17.3333333,9.30277778 L17.3333333,5.66759259 C17.3333333,4.99722222 16.9601852,4.45462963 16.5,4.45462963 L16.5,4.45462963 Z M12.4092593,4.45462963 L10.0194444,4.45462963 C10.3768519,3.51388889 11.112037,2.18240741 12.4092593,2.18240741 C13.0361111,2.18240741 13.5462963,2.69166667 13.5462963,3.31759259 C13.5462963,3.94444444 13.0361111,4.45462963 12.4092593,4.45462963 L12.4092593,4.45462963 Z M5.59166667,4.45462963 C4.96481481,4.45462963 4.45462963,3.94444444 4.45462963,3.31759259 C4.45462963,2.69166667 4.96481481,2.18240741 5.59166667,2.18240741 C6.88888889,2.18240741 7.62407407,3.51388889 7.98148148,4.45462963 L5.59166667,4.45462963 Z" id="path-1"></path>
    </defs>
    <g id="Test" stroke="none" stroke-width="1" fill="none" fill-rule="evenodd">
        <g id="2048-/-🇬🇷-Greece-/-Logged-In" transform="translate(-1626.000000, -22.000000)">
            <g id="Top-Right-Menu-/-Logged-in" transform="translate(1617.000000, 13.000000)">
                <g id="Icons/Interface/gift-fill" transform="translate(9.000000, 9.000000)">
                    <mask id="mask-2" fill="white">
                        <use xlink:href="#path-1"></use>
                    </mask>
                    <use id="🎨-Icon-Сolor" fill="#FFFFFF" xlink:href="#path-1"></use>
                </g>
            </g>
        </g>
    </g>
</svg>