<?xml version="1.0" encoding="UTF-8"?>
<svg width="18px" height="18px" viewBox="0 0 18 18" version="1.1" xmlns="http://www.w3.org/2000/svg" xmlns:xlink="http://www.w3.org/1999/xlink">
    <title>38A208E8-25A7-4E52-9E2C-7AFE09257D34@1x</title>
    <defs>
        <path d="M2.5184928,8.07397119 C2.5184928,5.01012486 5.01012486,2.5184928 8.07397119,2.5184928 C11.1378175,2.5184928 13.6294496,5.01012486 13.6294496,8.07397119 C13.6294496,11.1378175 11.1378175,13.6294496 8.07397119,13.6294496 C5.01012486,13.6294496 2.5184928,11.1378175 2.5184928,8.07397119 M17.0618093,15.7525683 L13.9183345,12.6081675 C14.8933209,11.3544812 15.4812757,9.78320671 15.4812757,8.07397119 C15.4812757,3.98976866 12.1581737,0.666666667 8.07397119,0.666666667 C3.98976866,0.666666667 0.666666667,3.98976866 0.666666667,8.07397119 C0.666666667,12.1581737 3.98976866,15.4812757 8.07397119,15.4812757 C9.78320671,15.4812757 11.3544812,14.8933209 12.6081675,13.9183345 L15.7525683,17.0618093 C15.9331213,17.2423624 16.170155,17.3331019 16.4071888,17.3331019 C16.6442225,17.3331019 16.8812563,17.2423624 17.0618093,17.0618093 C17.4238413,16.6997773 17.4238413,16.1146003 17.0618093,15.7525683" id="path-1"></path>
    </defs>
    <g id="Test" stroke="none" stroke-width="1" fill="none" fill-rule="evenodd" opacity="0.866141183">
        <g id="2048-/-🇬🇷-Greece-/-Logged-In" transform="translate(-1756.000000, -22.000000)">
            <g id="Top-Right-Menu-/-Logged-in" transform="translate(1617.000000, 13.000000)">
                <g id="icons-/-flags-/-search" transform="translate(139.000000, 9.000000)">
                    <mask id="mask-2" fill="white">
                        <use xlink:href="#path-1"></use>
                    </mask>
                    <use id="🎨-Icon-Сolor" fill="#FFFFFF" xlink:href="#path-1"></use>
                </g>
            </g>
        </g>
    </g>
</svg>