<?xml version="1.0" encoding="UTF-8"?>
<svg width="18px" height="18px" viewBox="0 0 18 18" version="1.1" xmlns="http://www.w3.org/2000/svg" xmlns:xlink="http://www.w3.org/1999/xlink">
    <title>90447BA3-085C-48CC-A3F3-E3C35CF59205@1x</title>
    <g id="Test" stroke="none" stroke-width="1" fill="none" fill-rule="evenodd" opacity="0.866141183">
        <g id="2048-/-🇬🇷-Greece-/-Logged-In" transform="translate(-1792.000000, -22.000000)" fill="#FFFFFF">
            <g id="Top-Right-Menu-/-Logged-in" transform="translate(1617.000000, 13.000000)">
                <g id="icons-/-flags-/-help" transform="translate(175.000000, 9.000000)">
                    <g id="headphones-customer-support-question" transform="translate(0.666667, 0.666667)">
                        <path d="M8.33221414,-1.77635684e-15 C11.7844573,-1.77635684e-15 14.5830533,2.85773489 14.5830533,6.38292955 L14.5830533,6.38292955 L14.5830533,6.92264171 C15.8318513,7.37190887 16.667053,8.57698719 16.6666665,9.92900158 C16.6642612,11.1390627 15.9918739,12.2436583 14.9303222,12.7814619 L14.9303222,12.7814619 L14.9303222,13.1204664 C14.9303222,14.7906663 13.6447329,15.957324 11.8049026,15.957324 L11.8049026,15.957324 L10.5700146,15.957324 C10.2556629,16.5133027 9.6148017,16.7843656 9.00752085,16.6182066 C8.40023999,16.4520477 7.97796463,15.8900986 7.97796463,15.2481096 C7.97796463,14.6061207 8.40023999,14.0441716 9.00752085,13.8780126 C9.6148017,13.7118536 10.2556629,13.9829165 10.5700146,14.5388952 L10.5700146,14.5388952 L11.8049026,14.5388952 C12.6445986,14.5388952 13.5412468,14.1658484 13.5412468,13.1204664 L13.5412468,13.1204664 L13.5412468,12.7162142 C13.323078,12.5177015 13.1969937,12.2344545 13.193978,11.9360783 L13.193978,11.9360783 L13.193978,6.38292955 C13.193978,3.64111145 11.0172922,1.41842872 8.33221414,1.41842872 C5.64713613,1.41842872 3.47045032,3.64111145 3.47045032,6.38292955 L3.47045032,6.38292955 L3.47045032,11.9360783 C3.47040218,12.2814051 3.30620762,12.6052229 3.03007053,12.8045773 C2.75393343,13.0039317 2.40021455,13.0540164 2.08137495,12.9389075 C0.833781667,12.4874067 0,11.2823734 0,9.93077461 C0,8.5791758 0.833781667,7.37414253 2.08137495,6.92264171 L2.08137495,6.92264171 L2.08137495,6.38292955 C2.081375,2.85773489 4.87997102,-1.77635684e-15 8.33221414,-1.77635684e-15 Z M8.33221414,10.9935324 C8.81169236,10.9935324 9.20038625,11.39044 9.20038625,11.8800504 C9.20038625,12.3696608 8.81169236,12.7665684 8.33221414,12.7665684 C7.85273592,12.7665684 7.46404203,12.3696608 7.46404203,11.8800504 C7.46404203,11.39044 7.85273592,10.9935324 8.33221414,10.9935324 Z M7.97696411,3.92802075 C9.2653073,3.74688777 10.4870589,4.56394941 10.8393489,5.84227623 C11.1916388,7.12060305 10.5664892,8.46838467 9.37471521,8.99993071 C9.26903536,9.04709474 9.20083184,9.15379053 9.20108079,9.27155982 L9.20108079,9.27155982 L9.20108079,9.66517382 C9.20108079,10.1547842 8.8123869,10.5516918 8.33290868,10.5516918 C7.85343046,10.5516918 7.46473657,10.1547842 7.46473657,9.66517382 L7.46473657,9.66517382 L7.46473657,9.27155982 C7.46490348,8.44934699 7.94172406,7.70522203 8.67948298,7.37582972 C9.07653483,7.19887703 9.28506907,6.75011134 9.16818574,6.32414135 C9.05130241,5.89817137 8.64477817,5.62538167 8.2154908,5.68485508 C7.78620342,5.74432848 7.46555289,6.11786085 7.46404203,6.56023315 C7.46404203,7.04984353 7.07534814,7.44675116 6.59586992,7.44675116 C6.11666281,7.44675132 5.72808118,7.05027575 5.72769781,6.56094237 C5.72856661,5.23296364 6.68862092,4.10915374 7.97696411,3.92802075 Z" id="Combined-Shape"></path>
                    </g>
                </g>
            </g>
        </g>
    </g>
</svg>