<?xml version="1.0" encoding="UTF-8"?>
<svg width="14px" height="16px" viewBox="0 0 14 16" version="1.1" xmlns="http://www.w3.org/2000/svg" xmlns:xlink="http://www.w3.org/1999/xlink">
    <title>99C0DA89-6D30-41BC-BDB9-D68083FCB62F@1x</title>
    <defs>
        <path d="M13.6175516,6.53636076 L11.375257,6.53636076 L11.375257,5.71303101 L11.375257,4.30211885 C11.375257,2.28491866 9.91870241,0.515591578 7.91180468,0.0951378758 C7.30658016,-0.0316656218 6.693133,-0.03175962 6.08809971,0.0951378758 C4.08129759,0.515591578 2.62474304,2.28491866 2.62474304,4.30221285 L2.62474304,5.71312501 L2.62474304,6.53645476 L0.382448352,6.53645476 C0.17124125,6.53645476 0,6.70480544 0,6.91244734 C0,7.12008924 0.17124125,7.28843992 0.382448352,7.28843992 L13.6175516,7.28843992 C13.8287588,7.28843992 14,7.12008924 14,6.91244734 C14,6.70480544 13.8287588,6.53636076 13.6175516,6.53636076 Z M10.8248182,11.9196345 C10.9371624,11.8209365 11.0983644,11.796403 11.2358545,11.8569378 C11.3734403,11.9174726 11.4619771,12.0518899 11.4621683,12.200125 L11.4621683,12.200125 L11.4621683,15.6240074 C11.4621683,15.8316493 11.2909271,16 11.07972,16 L11.07972,16 L2.92047123,16 C2.70926413,16 2.53802288,15.8316493 2.53802288,15.6240074 L2.53802288,15.6240074 L2.53802288,12.200125 C2.53802288,12.0518899 2.62665528,11.9175666 2.76414547,11.8569378 C2.90173126,11.796215 3.06274202,11.8208425 3.17518183,11.9196345 L3.17518183,11.9196345 L6.9660099,15.2480148 L7.0339901,15.2480148 Z M11.415414,7.7809902 L11.2472324,9.43507556 C11.1642411,10.2502275 10.4733481,10.8649753 9.63999317,10.8649753 L9.63999317,10.8649753 L8.97080417,10.8649753 C8.16479426,10.8649753 7.49302373,10.2961926 7.37350862,9.51262403 L7.37350862,9.51262403 L7.22406693,8.53306936 L6.77583746,8.53306936 L6.62639577,9.51262403 C6.50688066,10.2961926 5.83511012,10.8649753 5.02910022,10.8649753 L5.02910022,10.8649753 L4.35991122,10.8649753 C3.52655626,10.8649753 2.83566331,10.2503215 2.75276763,9.43507556 L2.75276763,9.43507556 L2.58458597,7.7809902 L11.415414,7.7809902 Z M7.75241933,0.83067336 C9.40842069,1.17762051 10.6104559,2.6375997 10.6104559,4.30221285 L10.6104559,5.33713243 L3.38963975,5.33713243 L3.38963975,4.30221285 C3.38963975,2.6375997 4.59157931,1.17762051 6.24767628,0.83067336 C6.74677138,0.726147423 7.25322862,0.726147423 7.75241933,0.83067336 Z" id="path-1"></path>
    </defs>
    <g id="Test" stroke="none" stroke-width="1" fill="none" fill-rule="evenodd">
        <g id="dropdown-/-account-details" transform="translate(-13.000000, -18.000000)">
            <g id="icons-/-01interface-/-ingongnito" transform="translate(13.000000, 18.000000)">
                <mask id="mask-2" fill="white">
                    <use xlink:href="#path-1"></use>
                </mask>
                <use id="Mask" fill="#000000" fill-rule="nonzero" xlink:href="#path-1"></use>
                <g id="color" mask="url(#mask-2)" fill="#1C2026">
                    <g transform="translate(-5.000000, -4.000000)" id="color-steel-800">
                        <rect x="0" y="0" width="24" height="24"></rect>
                    </g>
                </g>
            </g>
        </g>
    </g>
</svg>