<?xml version="1.0" encoding="UTF-8"?>
<svg width="122px" height="25px" viewBox="0 0 122 25" version="1.1" xmlns="http://www.w3.org/2000/svg" xmlns:xlink="http://www.w3.org/1999/xlink">
    <title>944DD674-BEBC-4088-8098-EADB9B7A592B@1x</title>
    <g id="Test" stroke="none" stroke-width="1" fill="none" fill-rule="evenodd">
        <g id="2048-/-🇬🇷-Greece-/-Logged-In" transform="translate(-16.000000, -18.000000)" fill="#F2F2F2" fill-rule="nonzero">
            <g id="_Logotypes-/-Stoiximan-/-large" transform="translate(16.000000, 18.000000)">
                <g id="Stoiximan_white" transform="translate(0.000000, 0.929577)">
                    <path d="M108.07425,8.09929577 L103.275,8.09929577 L103.123125,8.80358236 C101.936507,8.03612268 100.538249,7.65622166 99.12375,7.71696877 C95.1345,7.71696877 91.418625,11.3993815 91.418625,15.8162645 C91.418625,20.7261482 94.9725,22.3359461 97.493625,22.3359461 C98.4962845,22.3290048 99.4850471,22.1022658 100.389375,21.6719045 L100.3185,21.9938641 L105.0975,21.9938641 L108.07425,8.09929577 Z M101.99925,15.1421617 C101.860455,16.8143775 100.477528,18.1148991 98.789625,18.1605328 C98.0146149,18.1935115 97.2619957,17.8977585 96.719303,17.3469687 C96.1766104,16.7961789 95.8949481,16.0422187 95.9445,15.2729577 C95.8818338,13.4075646 97.3480972,11.842607 99.225,11.7716473 C100.085388,11.7543938 100.906121,12.130605 101.451385,12.7921875 C101.99665,13.45377 102.206079,14.3274807 102.0195,15.1622841 L101.99925,15.1421617 Z" id="Shape"></path>
                    <polygon id="Path" points="60.598125 21.9938641 55.4445 21.9938641 53.6625 18.552921 50.84775 21.9938641 45.05625 21.9938641 51.4755 14.8906307 47.952 8.10935701 53.146125 8.10935701 54.73575 11.6911574 57.429 8.10935701 63.261 8.10935701 56.872125 15.2930802"></polygon>
                    <path d="M90.86175,12.2646479 C90.8669084,12.7950171 90.8160043,13.3244585 90.709875,13.8442621 L88.927875,21.9938641 L84.331125,21.9938641 L85.96125,14.2970178 C86.234625,13.2908941 85.212,12.3853827 84.209625,12.3853827 C83.20725,12.3853827 82.47825,12.8280772 82.063125,14.7698959 L80.483625,21.9938641 L75.9375,21.9938641 L77.587875,14.2970178 C77.7073126,13.8011359 77.5752548,13.2785514 77.234232,12.8975675 C76.8932093,12.5165837 76.3862966,12.325323 75.87675,12.3853827 C74.86425,12.3853827 74.09475,12.8280772 73.679625,14.7698959 L72.15075,21.9938641 L67.49325,21.9938641 L70.459875,8.09929577 L74.70225,8.09929577 L74.408625,9.38713411 C75.289243,8.27850218 76.6541316,7.66030232 78.073875,7.72703001 C79.5982553,7.6463906 81.0387641,8.42434554 81.799875,9.7392774 C82.788977,8.39240621 84.3972529,7.63499027 86.072625,7.72703001 C89.1,7.72703001 90.86175,9.61854256 90.86175,12.2646479 Z" id="Path"></path>
                    <path d="M121.5,12.2646479 C121.49835,12.7957173 121.44066,13.3251506 121.327875,13.8442621 L119.566125,21.9938641 L114.59475,21.9938641 L116.245125,14.307079 C116.28861,14.1188594 116.312362,13.9266707 116.316,13.7335885 C116.358501,13.356335 116.221477,12.9809728 115.945459,12.7185329 C115.669442,12.456093 115.286026,12.3366164 114.908625,12.395444 C113.94675,12.395444 113.126625,12.8280772 112.7115,14.7799571 L111.182625,21.9938641 L106.57575,21.9938641 L109.542375,8.10935701 L113.794875,8.10935701 L113.50125,9.38713411 C114.424049,8.2700583 115.825327,7.65409395 117.277875,7.72703001 C120.072375,7.72703001 121.5,9.61854256 121.5,12.2646479 Z" id="Path"></path>
                    <path d="M39.26475,14.4278138 C39.280923,16.5161272 38.458793,18.524719 36.9803508,20.0089573 C35.5019087,21.4931956 33.4891035,22.3306531 31.3875,22.3359461 L31.16475,22.3359461 C27.266625,22.3359461 23.99625,19.8206369 23.99625,15.6049786 C23.9827803,13.5236091 24.8019453,11.5221745 26.2735291,10.0409896 C27.7451129,8.55980459 29.7485643,7.72020688 31.843125,7.70687746 L32.05575,7.70687746 C35.98425,7.6968463 39.26475,10.2121555 39.26475,14.4278138 Z M28.663875,15.3735701 C28.6041405,16.1253914 28.8651867,16.8675388 29.3832314,17.4186811 C29.9012761,17.9698235 30.6286022,18.2791951 31.3875,18.2712064 C32.2987808,18.2249025 33.152853,17.8157016 33.7568158,17.1360259 C34.3607787,16.4563502 34.6636867,15.5635316 34.597125,14.6592223 C34.6513781,13.8974137 34.3804181,13.1480993 33.8506215,12.5948376 C33.320825,12.0415759 32.5811342,11.7354767 31.81275,11.7515248 C30.909377,11.8105915 30.0675574,12.2271283 29.475719,12.9079002 C28.8838805,13.5886721 28.591447,14.4768286 28.663875,15.3735701 L28.663875,15.3735701 Z" id="Shape"></path>
                    <path d="M21.961125,8.09929577 L22.548375,5.36263931 L18.16425,5.36263931 L15.886125,15.9873056 C14.9445,20.3639437 17.708625,22.3260543 21.090375,22.3260543 C21.4885153,22.3290244 21.8857903,22.2885348 22.275,22.20515 L23.115375,18.2712064 L22.275,18.2712064 C20.6955,18.2712064 19.8855,17.6574709 20.199375,16.2086528 L21.211875,11.3289528 L23.895,11.3289528 L24.6645,8.04898959 L21.961125,8.09929577 Z" id="Path"></path>
                    <polygon id="Path" points="38.950875 21.9938641 41.9175 8.09929577 46.575 8.09929577 43.5375 21.9938641"></polygon>
                    <polygon id="Path" points="61.7625 21.9938641 64.69875 8.09929577 69.305625 8.09929577 66.339 21.9938641"></polygon>
                    <path d="M0,21.9938641 L1.0935,16.8827557 L5.64975,16.8827557 C6.24603683,16.8504455 6.79943009,16.5644932 7.1685,16.0979792 C7.56713945,15.5293868 7.68965354,14.8136882 7.502625,14.1460992 C7.502625,14.1460992 6.247125,8.18984691 6.075,7.52580527 C5.55494466,5.18270715 6.40426555,2.74802231 8.272125,1.22747091 C9.17178677,0.543251307 10.2437578,0.118555666 11.370375,0 L12.15,0 L18.964125,0 L17.830125,5.09098592 L13.780125,5.09098592 C13.0391398,5.01286278 12.3062807,5.29815419 11.815875,5.85563993 C11.659934,6.03679023 11.5458788,6.24972628 11.48175,6.47943662 C11.3246551,7.06960878 11.3246551,7.69022588 11.48175,8.28039804 C11.48175,8.3508267 12.61575,13.6732211 12.61575,13.6732211 C12.7693706,14.3075468 12.8676102,14.9538643 12.909375,15.6049786 C13.0006018,17.1820545 12.494982,18.7360162 11.491875,19.9614942 C10.5650081,21.0469791 9.27364452,21.761871 7.857,21.9737416 C7.45775567,22.0275686 7.05496667,22.0511129 6.652125,22.0441702 L0,21.9938641 Z" id="Path"></path>
                    <polygon id="Path" points="42.778125 4.11504593 42.251625 6.60017146 46.848375 6.60017146 47.385 4.11504593"></polygon>
                    <polygon id="Path" points="65.54925 4.11504593 65.02275 6.60017146 69.6195 6.60017146 70.156125 4.11504593"></polygon>
                </g>
            </g>
        </g>
    </g>
</svg>