<?xml version="1.0" encoding="UTF-8"?>
<svg width="20px" height="20px" viewBox="0 0 20 20" version="1.1" xmlns="http://www.w3.org/2000/svg" xmlns:xlink="http://www.w3.org/1999/xlink">
    <title>6BB3365E-AEAD-40D5-931F-3C419168AEA1</title>
    <defs>
        <rect id="path-1" x="0" y="0" width="20" height="20" rx="10"></rect>
        <path d="M6.19878131,5.02631579 C7.67606369,5.02817175 8.87318515,6.25241117 8.875,7.76315789 C8.875,9.27467405 7.67681608,10.5 6.19878131,10.5 C4.72074654,10.5 3.52256262,9.27467405 3.52256262,7.76315789 C3.52256262,6.25164174 4.72074654,5.02631579 6.19878131,5.02631579 Z M0.183730856,7.05072233 C0.219639375,7.0332614 0.262170635,7.03851223 0.292984244,7.06421053 C1.04686516,7.59545086 1.92284877,7.91713021 2.83498028,7.99768421 C2.88248396,8.00378968 2.91946043,8.04282922 2.92391308,8.09157895 C2.96604173,8.53504144 3.09455496,8.96539189 3.30187751,9.35726316 C3.31996993,9.39141889 3.31819755,9.43298849 3.29726676,9.46540417 C3.27633598,9.49781986 3.23964918,9.51581231 3.2018281,9.51221053 C1.44334656,9.34757895 0.125,8.67557895 0.125,7.86842105 L0.125,7.86842105 L0.125,7.14589474 C0.12495902,7.10523292 0.147822338,7.06818325 0.183730856,7.05072233 Z M6.19878131,6.07894739 C5.97139135,6.07894739 5.78705537,6.26745906 5.78705536,6.5 L5.78705536,6.5 L5.78705536,7.65789474 C5.78705536,7.71602997 5.74097136,7.76315789 5.68412387,7.76315789 L5.68412387,7.76315789 L5.3753294,7.76315789 C5.29605155,7.76298125 5.22371869,7.80937499 5.18935835,7.88243831 C5.15499801,7.95550163 5.16471631,8.04225055 5.21434456,8.10547368 L5.21434456,8.10547368 L6.03779646,9.15810526 C6.07696784,9.20800767 6.13620712,9.23698129 6.19878131,9.2368426 C6.26135549,9.23698129 6.32059477,9.20800767 6.35976616,9.15810526 L6.35976616,9.15810526 L7.18321806,8.10547368 C7.2328463,8.04225055 7.24256461,7.95550163 7.20820427,7.88243831 C7.17384392,7.80937499 7.10151106,7.76298125 7.02223321,7.76315789 L7.02223321,7.76315789 L6.71343875,7.76315789 C6.65659126,7.76315789 6.61050726,7.71602997 6.61050726,7.65789474 L6.61050726,7.65789474 L6.61050726,6.5 C6.61050725,6.26745906 6.42617127,6.07894739 6.19878131,6.07894739 Z M0.183730856,5.15598548 C0.219639375,5.13852456 0.262170635,5.14377538 0.292984244,5.16947368 C1.14206362,5.75509506 2.13193405,6.0913612 3.15489134,6.14168421 C3.18837108,6.14510722 3.21810143,6.16504804 3.2345113,6.1950871 C3.25092118,6.22512616 3.25193879,6.26147098 3.23723653,6.29242105 C3.06108463,6.66426725 2.9538711,7.06628865 2.921031,7.47810526 C2.91858593,7.5069262 2.90469497,7.53346223 2.88259786,7.55152445 C2.86050075,7.56958667 2.83212942,7.57759591 2.80410083,7.57368421 C1.24818845,7.34968421 0.125,6.71852632 0.125,5.97368421 L0.125,5.97368421 L0.125,5.25115789 C0.12495902,5.21049608 0.147822338,5.17344641 0.183730856,5.15598548 Z M0.183730856,3.26082759 C0.219639375,3.24336667 0.262170635,3.24861749 0.292984244,3.27431579 C1.09049741,3.93873684 2.59412059,4.28947368 4.03680833,4.28947368 C5.47949607,4.28947368 6.9822958,3.93915789 7.77980897,3.27515789 C7.81062258,3.24945959 7.85315383,3.24420877 7.88906235,3.26166969 C7.92497087,3.27913062 7.94779321,3.31618029 7.94779321,3.35684211 L7.94779321,3.35684211 L7.94779321,4.07894737 C7.93952952,4.30557635 7.84757696,4.52057918 7.69046443,4.68063158 C7.66024636,4.71470096 7.61189675,4.72476043 7.57106391,4.70547368 C7.1411327,4.50120287 6.67284792,4.39516543 6.19878131,4.39473684 C5.17982149,4.39505756 4.21870412,4.87895823 3.59708501,5.70463158 C3.57662519,5.73261027 3.54392416,5.7483847 3.50979911,5.74673684 C1.59939069,5.63684211 0.125,4.93242105 0.125,4.07894737 L0.125,4.07894737 L0.125,3.356 C0.125,3.31533819 0.147822338,3.27828851 0.183730856,3.26082759 Z M4.03680833,0.5 C6.197013,0.5 7.94820488,1.25404674 7.94820488,2.18421053 C7.94820488,3.11437432 6.197013,3.86842105 4.03680833,3.86842105 C1.87660367,3.86842105 0.125411781,3.11437432 0.125411781,2.18421053 C0.125411781,1.25404674 1.87660367,0.5 4.03680833,0.5 Z" id="path-3"></path>
    </defs>
    <g id="Test" stroke="none" stroke-width="1" fill="none" fill-rule="evenodd">
        <g id="dropdown-/-account-details" transform="translate(-264.000000, -212.000000)">
            <g id="progress_bar-/-" transform="translate(8.000000, 212.000000)">
                <g id="locker" transform="translate(256.000000, 0.000000)">
                    <g id="shapes-/-radius-/-64" opacity="0.87">
                        <g id="color">
                            <mask id="mask-2" fill="white">
                                <use xlink:href="#path-1"></use>
                            </mask>
                            <g id="Mask"></g>
                            <g mask="url(#mask-2)" fill="#1C2026" id="color-steel-800">
                                <rect x="0" y="0" width="20" height="20"></rect>
                            </g>
                        </g>
                    </g>
                    <g id="icons-/-01interface-/-unlocked" transform="translate(5.500000, 4.500000)">
                        <mask id="mask-4" fill="white">
                            <use xlink:href="#path-3"></use>
                        </mask>
                        <use id="Mask" fill="#000000" fill-rule="nonzero" xlink:href="#path-3"></use>
                        <g id="color" mask="url(#mask-4)" fill="#FFFFFF">
                            <g transform="translate(-3.000000, -2.000000)" id="color-white-snow">
                                <rect x="0" y="0" width="15" height="15"></rect>
                            </g>
                        </g>
                    </g>
                </g>
            </g>
        </g>
    </g>
</svg>