<?xml version="1.0" encoding="UTF-8"?>
<svg width="32px" height="32px" viewBox="0 0 32 32" version="1.1" xmlns="http://www.w3.org/2000/svg" xmlns:xlink="http://www.w3.org/1999/xlink">
    <title>1FCA4494-F935-4C93-9617-EDBF8B30902E@1x</title>
    <defs>
        <path d="M7.78007477,0 C8.11436112,0 8.38530899,0.251428571 8.38530899,0.561632653 C8.38530899,0.868571429 8.11436112,1.12 7.78007477,1.12 L7.78007477,1.12 L3.27600616,1.12 C2.13591379,1.12 1.21046844,1.97877551 1.20694964,3.04 L1.20694964,3.04 L1.20694964,12.9567347 C1.20694964,14.0146939 2.13591379,14.8767347 3.27600616,14.8767347 L3.27600616,14.8767347 L7.7061799,14.8767347 C8.04046624,14.8767347 8.31141412,15.1281633 8.31141412,15.4383673 C8.31141412,15.7453061 8.04046624,15.9967347 7.7061799,15.9967347 L7.7061799,15.9967347 L3.27600616,15.9967347 C1.47085991,15.9967347 0,14.6318367 0,12.9567347 L0,12.9567347 L0,3.04 C0,1.36489796 1.47085991,0 3.27600616,0 L3.27600616,0 Z M11.4818562,4.3722449 C11.717616,4.15346939 12.1011656,4.15346939 12.3369254,4.3722449 L12.3369254,4.3722449 L15.8170222,7.59836735 C15.8346162,7.61142857 15.8451726,7.6277551 15.8592479,7.64081633 C15.8627667,7.64408163 15.8627667,7.64408163 15.8662855,7.64734694 C15.8768419,7.65714286 15.8838795,7.67020408 15.8944359,7.68326531 C15.8979547,7.68653061 15.8979547,7.68979592 15.9014735,7.69306122 C15.9120299,7.70612245 15.9190675,7.71918367 15.9261051,7.7322449 L15.9261051,7.7322449 L15.9401803,7.76 L15.9401803,7.76 L15.9507367,7.78122449 C15.9542556,7.7844898 15.9542556,7.7844898 15.9542556,7.7877551 C15.9612932,7.80408163 15.9683308,7.81714286 15.9718496,7.83346939 C15.9753684,7.83346939 15.9753684,7.83673469 15.9753684,7.84 C15.9788872,7.85632653 15.982406,7.86938776 15.9859248,7.88571429 C15.9894436,7.8922449 15.9894436,7.8955102 15.9894436,7.90204082 C15.9929624,7.91510204 15.9964812,7.92816327 15.9964812,7.94122449 C16,7.96081633 16,7.97714286 16,7.99673469 C16,8.01632653 16,8.03265306 15.9964812,8.0522449 C15.9929624,8.06530612 15.9929624,8.07836735 15.9894436,8.09142857 C15.9859248,8.09795918 15.9859248,8.10122449 15.9859248,8.1077551 C15.9859248,8.12408163 15.9788872,8.13714286 15.9753684,8.15346939 C15.9718496,8.15346939 15.9718496,8.15673469 15.9718496,8.16 C15.964812,8.17632653 15.9612932,8.19265306 15.9542556,8.20571429 C15.9507367,8.20897959 15.9507367,8.20897959 15.9507367,8.2122449 C15.9436991,8.22857143 15.9366615,8.24163265 15.9296239,8.25469388 C15.9296239,8.25469388 15.9261051,8.25795918 15.9261051,8.26122449 C15.9190675,8.27428571 15.9085111,8.28734694 15.9014735,8.30040816 C15.8979547,8.30367347 15.8979547,8.30693878 15.8944359,8.31020408 C15.8873983,8.32326531 15.8768419,8.33306122 15.8662855,8.34612245 C15.8627667,8.34938776 15.8627667,8.34938776 15.8592479,8.35265306 C15.8451726,8.36571429 15.8310974,8.37877551 15.8135034,8.39836735 L15.8135034,8.39836735 L12.3545195,11.6081633 C12.2383989,11.7159184 12.0835716,11.7714286 11.9287442,11.7714286 C11.7739169,11.7714286 11.6190895,11.7159184 11.502969,11.6081633 C11.2672091,11.3893878 11.2672091,11.0334694 11.502969,10.8146939 L11.502969,10.8146939 L13.9344623,8.55836735 L4.1944139,8.55836735 C3.86012756,8.55836735 3.58917968,8.30693878 3.58917968,7.99673469 C3.58917968,7.68979592 3.86012756,7.43836735 4.1944139,7.43836735 L4.1944139,7.43836735 L13.9309435,7.43836735 L11.4818562,5.16571429 C11.2460963,4.94693878 11.2460963,4.59102041 11.4818562,4.3722449 Z" id="path-1"></path>
    </defs>
    <g id="Test" stroke="none" stroke-width="1" fill="none" fill-rule="evenodd">
        <g id="dropdown-/-account-details" transform="translate(-249.000000, -322.000000)">
            <g id="buttons-/-only_icon-/-ghost-/-dark-/-default-/-medium" transform="translate(249.000000, 322.000000)">
                <g id="button"></g>
                <g id="icon" opacity="0.87" transform="translate(8.000000, 8.000000)">
                    <mask id="mask-2" fill="white">
                        <use xlink:href="#path-1"></use>
                    </mask>
                    <use id="Mask" fill="#000000" fill-rule="nonzero" xlink:href="#path-1"></use>
                    <g id="color" mask="url(#mask-2)" fill="#1C2026">
                        <g transform="translate(-4.000000, -4.000000)" id="color-steel-800">
                            <rect x="0" y="0" width="24" height="24"></rect>
                        </g>
                    </g>
                </g>
            </g>
        </g>
    </g>
</svg>