<?xml version="1.0" encoding="UTF-8"?>
<svg width="14px" height="14px" viewBox="0 0 14 14" version="1.1" xmlns="http://www.w3.org/2000/svg" xmlns:xlink="http://www.w3.org/1999/xlink">
    <title>6BC149E8-9D4F-48B4-A0B5-0A538FB52447@1x</title>
    <defs>
        <path d="M4.8675,7.83333333 L2.80833333,9.72583333 C3.7,11.095 5.245,12 7,12 C9.4775,12 11.5341667,10.1983333 11.9308333,7.83333333 L11.9308333,7.83333333 L13.615,7.83333333 C13.205,11.1216667 10.4,13.6666667 7,13.6666667 C4.75916667,13.6666667 2.77666667,12.5608333 1.5675,10.8658333 L1.5675,10.8658333 L0.333333333,12 L0.333333333,7.83333333 L4.8675,7.83333333 Z M7,0.333333333 C9.26666667,0.333333333 11.2691667,1.46416667 12.4733333,3.19333333 L12.4733333,3.19333333 L13.6666667,2 L13.6666667,6.16666667 L9.5,6.16666667 L11.27,4.39666667 C10.3916667,2.95916667 8.8075,2 7,2 C4.5225,2 2.46583333,3.80166667 2.06916667,6.16666667 L2.06916667,6.16666667 L0.385,6.16666667 C0.795,2.87833333 3.6,0.333333333 7,0.333333333 Z" id="path-1"></path>
    </defs>
    <g id="Test" stroke="none" stroke-width="1" fill="none" fill-rule="evenodd" opacity="0.38">
        <g id="dropdown-/-account-details" transform="translate(-218.000000, -57.000000)">
            <g id="icons-/-01interface-/-ingongnito-copy" transform="translate(218.000000, 57.000000)">
                <mask id="mask-2" fill="white">
                    <use xlink:href="#path-1"></use>
                </mask>
                <use id="Mask" fill="#030104" fill-rule="nonzero" xlink:href="#path-1"></use>
                <g id="color" mask="url(#mask-2)" fill="#1C2026">
                    <g transform="translate(-3.000000, -3.000000)" id="color-steel-800">
                        <rect x="0" y="0" width="20" height="20"></rect>
                    </g>
                </g>
            </g>
        </g>
    </g>
</svg>