<?xml version="1.0" encoding="UTF-8"?>
<svg width="18px" height="14px" viewBox="0 0 18 14" version="1.1" xmlns="http://www.w3.org/2000/svg" xmlns:xlink="http://www.w3.org/1999/xlink">
    <title>A598FBC8-9217-4CE5-B67C-E3E49C4E3BFD@1x</title>
    <defs>
        <filter id="filter-1">
            <feColorMatrix in="SourceGraphic" type="matrix" values="0 0 0 0 1.000000 0 0 0 0 1.000000 0 0 0 0 1.000000 0 0 0 1.000000 0"></feColorMatrix>
        </filter>
        <path d="M14.8386667,0.333333333 C16.217,0.333333333 17.3386667,1.455 17.3386667,2.83333333 L17.3386667,2.83333333 L17.3386667,11.1666667 C17.3386667,12.545 16.217,13.6666667 14.8386667,13.6666667 L14.8386667,13.6666667 L3.172,13.6666667 C1.79366667,13.6666667 0.672,12.545 0.672,11.1666667 L0.672,11.1666667 L0.672,2.83333333 C0.672,1.455 1.79366667,0.333333333 3.172,0.333333333 L3.172,0.333333333 Z M16.2465397,2.20833333 C16.016421,1.80975615 15.5067624,1.67319352 15.1081852,1.90331216 L15.1081852,1.90331216 L8.99967568,5.42952752 L2.89181483,1.90331216 C2.49323764,1.67319352 1.98357897,1.80975615 1.75346033,2.20833333 C1.52334168,2.60691052 1.65990431,3.11656919 2.0584815,3.34668784 L2.0584815,3.34668784 L8.55367202,7.09668784 C8.69436476,7.17791682 8.84889826,7.21345728 9.00014393,7.20792131 C9.15126257,7.21342028 9.30570845,7.17787455 9.44632798,7.09668784 L9.44632798,7.09668784 L15.9415185,3.34668784 C16.3400957,3.11656919 16.4766583,2.60691052 16.2465397,2.20833333 Z" id="path-2"></path>
    </defs>
    <g id="Test" stroke="none" stroke-width="1" fill="none" fill-rule="evenodd" opacity="0.866141183">
        <g id="2048-/-🇬🇷-Greece-/-Logged-In" transform="translate(-1828.000000, -24.000000)">
            <g id="icons-/-flags-/-message" transform="translate(1617.000000, 13.000000)" filter="url(#filter-1)">
                <g transform="translate(211.000000, 11.000000)">
                    <mask id="mask-3" fill="white">
                        <use xlink:href="#path-2"></use>
                    </mask>
                    <use id="Combined-Shape" fill="#FFFFFF" xlink:href="#path-2"></use>
                </g>
            </g>
        </g>
    </g>
</svg>